# xmcd
#
# Track frame offsets: 
#        150
#        13421
#        26946
#        38755
#        53174
#        67386
#        78928
#        91756
#        100406
#        114161
#        125325
#        137305
#        150666
#        163625
#        178758
#        192555
#        208295
#        219581
#        230118
#        240975
#        254780
#        269222
#        282289
#        297634
#
# Disc length: 4285 seconds
#
# Revision: 1
# Processed by: cddbd v1.5.2PL0 Copyright (c) Steve Scherf et al.
# Submitted via: ExactAudioCopyFreeDBPlugin 1.0
#
DISCID=7710bb18
DTITLE=Bobbie Gentry - The Girl From Chickasaw County - CD2 - The Delt
DTITLE=a Sweete '68
DYEAR=2018
DGENRE=Country
TTITLE0=Okolona River Bottom Band
TTITLE1=Big Boss Man
TTITLE2=Reunion
TTITLE3=Parchman Farm
TTITLE4=Mornin' Glory
TTITLE5=Sermon
TTITLE6=Tobacco Road
TTITLE7=Penduli Pendulum
TTITLE8=Jessye' Lisabeth
TTITLE9=Refractions
TTITLE10=Louisiana Man
TTITLE11=Courtyard
TTITLE12=The Seventh Son [Band Version]  (Bonus Tracks)
TTITLE13=Feelin' Good [Demo]  (Bonus Tracks)
TTITLE14=I Don't Know [Demo]  (Bonus Tracks)
TTITLE15=Morning To Midnight [Demo]  (Bonus Tracks)
TTITLE16=Refractions [Demo]  (Bonus Tracks)
TTITLE17=Louisiana Man [Demo]  (Bonus Tracks)
TTITLE18=Sermon [Demo]  (Bonus Tracks)
TTITLE19=Mornin' Glory [Demo]  (Bonus Tracks)
TTITLE20=Jessye' Lisabeth [Demo]  (Bonus Tracks)
TTITLE21=Courtyard [Demo]  (Bonus Tracks)
TTITLE22=Louisiana Man [Tom Jones Show 06.07.1968]  (Bonus Tracks)
TTITLE23=Ode To Billie Joe [Tom Jones Show 06.07.1968]  (Bonus Tracks)
EXTD=
EXTT0=
EXTT1=
EXTT2=
EXTT3=
EXTT4=
EXTT5=
EXTT6=
EXTT7=
EXTT8=
EXTT9=
EXTT10=
EXTT11=
EXTT12=
EXTT13=
EXTT14=
EXTT15=
EXTT16=
EXTT17=
EXTT18=
EXTT19=
EXTT20=
EXTT21=
EXTT22=
EXTT23=
PLAYORDER=
